<mxfile host="app.diagrams.net" modified="2024-05-11T19:33:45.230Z" agent="Mozilla/5.0 (Windows NT 10.0; Win64; x64) AppleWebKit/537.36 (KHTML, like Gecko) Chrome/124.0.0.0 Safari/537.36 Edg/124.0.0.0" version="24.4.0" etag="XCuqBXPFUqq7OuhKatgG" type="github">
  <diagram name="1 oldal" id="JFdxTzk8DECuWTHzJF8w">
    <mxGraphModel>
      <root>
        <mxCell id="0" />
        <mxCell id="1" parent="0" />
      </root>
    </mxGraphModel>
  </diagram>
</mxfile>
